<svg width="16" height="16" viewBox="0 0 16 16" fill="none" xmlns="http://www.w3.org/2000/svg">
<path d="M5 10C3.34316 10 2 11.3432 2 13C2 14.6568 3.34316 16 5 16C6.65684 16 8 14.6568 8 13C8 11.3432 6.65684 10 5 10ZM6.49794 13.4688H3.50209V12.5312H6.49794V13.4688Z" fill="#909090"/>
<path d="M10.4688 0.46875V3.53125H13.5312L10.4688 0.46875Z" fill="#909090"/>
<path d="M9.53125 4.46875V0H4V9.19078C4.31934 9.10719 4.65444 9.0625 5 9.0625C7.17462 9.0625 8.9375 10.8254 8.9375 13C8.9375 13.3456 8.89281 13.6807 8.80922 14H14V4.46875H9.53125ZM5.50206 2.53125H7.49791V3.46875H5.50206V2.53125ZM8.49794 8.46875H5.50209V7.53125H8.49794V8.46875ZM12.4979 11.4688H10.5021V10.5312H12.4979V11.4688ZM12.4979 8.46875H9.50209V7.53125H12.4979V8.46875ZM12.4979 6.46875H5.50206V5.53125H12.4979L12.4979 6.46875Z" fill="#909090"/>
</svg>
