<svg width="26" height="22" viewBox="0 0 26 22" fill="none" xmlns="http://www.w3.org/2000/svg">
<path d="M0.378906 11C1.47557 5.02667 6.70924 0.5 12.9999 0.5C19.2906 0.5 24.5242 5.02667 25.6221 11C24.5254 16.9733 19.2906 21.5 12.9999 21.5C6.70924 21.5 1.47557 16.9733 0.378906 11ZM12.9999 16.8333C14.547 16.8333 16.0307 16.2188 17.1247 15.1248C18.2187 14.0308 18.8332 12.5471 18.8332 11C18.8332 9.4529 18.2187 7.96917 17.1247 6.87521C16.0307 5.78125 14.547 5.16667 12.9999 5.16667C11.4528 5.16667 9.96908 5.78125 8.87512 6.87521C7.78115 7.96917 7.16657 9.4529 7.16657 11C7.16657 12.5471 7.78115 14.0308 8.87512 15.1248C9.96908 16.2188 11.4528 16.8333 12.9999 16.8333ZM12.9999 14.5C12.0716 14.5 11.1814 14.1313 10.525 13.4749C9.86865 12.8185 9.49991 11.9283 9.49991 11C9.49991 10.0717 9.86865 9.1815 10.525 8.52513C11.1814 7.86875 12.0716 7.5 12.9999 7.5C13.9282 7.5 14.8184 7.86875 15.4748 8.52513C16.1312 9.1815 16.4999 10.0717 16.4999 11C16.4999 11.9283 16.1312 12.8185 15.4748 13.4749C14.8184 14.1313 13.9282 14.5 12.9999 14.5Z" fill="#0650A7"/>
</svg>
