<svg width="16" height="16" viewBox="0 0 16 16" fill="none" xmlns="http://www.w3.org/2000/svg">
<path d="M14.3346 13.1901L13.6202 4.18666C13.5759 3.60656 13.0851 3.15234 12.5034 3.15234H11.0921V5.2435C11.0921 5.50247 10.8824 5.71209 10.6235 5.71209C10.3648 5.71209 10.1549 5.50247 10.1549 5.2435V3.15234H5.84389V5.2435C5.84389 5.50247 5.63396 5.71209 5.3753 5.71209C5.11633 5.71209 4.90671 5.50247 4.90671 5.2435V3.15234H3.49533C2.91368 3.15234 2.42289 3.60656 2.37855 4.18541L1.6638 13.1913C1.60852 13.9126 1.85874 14.6305 2.35011 15.1609C2.84152 15.6913 3.53814 15.9959 4.26133 15.9959H11.7375C12.4606 15.9959 13.1573 15.6913 13.6487 15.1609C14.1401 14.6305 14.3903 13.9126 14.3346 13.1901ZM10.1105 8.60509L7.68699 11.0286C7.59546 11.1202 7.47549 11.1661 7.35555 11.1661C7.23558 11.1661 7.11564 11.1202 7.02411 11.0286L5.88827 9.89278C5.70521 9.70972 5.70521 9.41325 5.88827 9.23019C6.07133 9.04712 6.36811 9.04712 6.55086 9.23019L7.35558 10.0346L9.44796 7.94222C9.63071 7.75947 9.92749 7.75947 10.1106 7.94222C10.2936 8.12528 10.2936 8.42203 10.1105 8.60509Z" fill="currentColor"/>
<path d="M7.99891 0C6.29356 0 4.90625 1.38762 4.90625 3.09297V3.15637H5.84344V3.09297C5.84344 1.90431 6.81028 0.937156 7.99894 0.937156C9.18759 0.937156 10.1544 1.90431 10.1544 3.09297V3.15637H11.0916V3.09297C11.0916 1.38762 9.70425 0 7.99891 0Z" fill="currentColor"/>
</svg>