<svg width="14" height="14" viewBox="0 0 14 14" fill="none" xmlns="http://www.w3.org/2000/svg">
<path d="M5.02998 2.80588C4.37748 2.83101 3.78761 3.06388 3.47223 3.37963C3.43739 3.41445 3.39603 3.44206 3.35052 3.46089C3.30501 3.47973 3.25623 3.48941 3.20697 3.48939C3.15772 3.48938 3.10895 3.47966 3.06345 3.46079C3.01795 3.44193 2.97661 3.41428 2.94179 3.37944C2.90698 3.3446 2.87936 3.30324 2.86053 3.25773C2.8417 3.21222 2.83201 3.16344 2.83203 3.11419C2.83205 3.06493 2.84177 3.01616 2.86063 2.97066C2.8795 2.92516 2.90714 2.88382 2.94198 2.84901C3.42836 2.36263 4.22036 2.08663 5.00073 2.05626C5.78636 2.02588 6.64398 2.24076 7.24473 2.84151C7.31505 2.91187 7.35453 3.00729 7.3545 3.10676C7.35446 3.20624 7.31491 3.30163 7.24454 3.37194C7.17418 3.44226 7.07876 3.48174 6.97929 3.48171C6.87981 3.48167 6.78442 3.44212 6.71411 3.37176C6.30536 2.96263 5.67761 2.78038 5.02998 2.80551" fill="#999999"/>
<path fill-rule="evenodd" clip-rule="evenodd" d="M8.269 8.851C7.39029 9.5945 6.27605 10.0017 5.125 10C2.4325 10 0.25 7.8175 0.25 5.125C0.25 2.4325 2.4325 0.25 5.125 0.25C7.8175 0.25 10 2.4325 10 5.125C10 6.32312 9.568 7.42 8.851 8.269L9.679 8.125L13.5355 11.9815C13.8216 12.2676 13.8216 12.7315 13.5355 13.0173L13.0173 13.5355C12.7311 13.8216 12.2673 13.8216 11.9815 13.5355L8.125 9.679L8.269 8.851ZM9.25 5.125C9.25 7.40312 7.40312 9.25 5.125 9.25C2.84688 9.25 1 7.40312 1 5.125C1 2.84688 2.84688 1 5.125 1C7.40312 1 9.25 2.84688 9.25 5.125ZM11.9684 11.4749L9.424 8.9305L9.004 9.00362L8.9305 9.424L11.4824 11.9759L11.9684 11.4749ZM12.0126 12.5061L12.4994 12.9929L12.9929 12.4994L12.4986 12.0051L12.0126 12.5061Z" fill="#999999"/>
</svg>
