<svg width="403" height="339" viewBox="0 0 403 339" fill="none" xmlns="http://www.w3.org/2000/svg">
    <path opacity="0.1" d="M402.33 183.664H0V190.989H402.33V183.664Z" fill="#6AA780"/>
    <path opacity="0.1" d="M402.33 199.77H0V207.094H402.33V199.77Z" fill="#6AA780"/>
    <path opacity="0.1" d="M402.33 215.867H0V223.192H402.33V215.867Z" fill="#6AA780"/>
    <path opacity="0.1" d="M402.33 231.973H0V239.297H402.33V231.973Z" fill="#6AA780"/>
    <g opacity="0.5">
        <path opacity="0.5" d="M66.6939 77.3945H43.4609V100.628H66.6939V77.3945Z" fill="#6AA780"/>
        <path opacity="0.5" d="M95.6861 77.3945H72.4531V100.628H95.6861V77.3945Z" fill="#6AA780"/>
        <path opacity="0.5" d="M66.6939 106.383H43.4609V129.616H66.6939V106.383Z" fill="#6AA780"/>
        <path opacity="0.5" d="M95.6861 106.383H72.4531V129.616H95.6861V106.383Z" fill="#6AA780"/>
    </g>
    <g opacity="0.5">
        <path opacity="0.5" d="M329.881 77.3945H306.648V100.628H329.881V77.3945Z" fill="#6AA780"/>
        <path opacity="0.5" d="M358.866 77.3945H335.633V100.628H358.866V77.3945Z" fill="#6AA780"/>
        <path opacity="0.5" d="M329.881 106.383H306.648V129.616H329.881V106.383Z" fill="#6AA780"/>
        <path opacity="0.5" d="M358.866 106.383H335.633V129.616H358.866V106.383Z" fill="#6AA780"/>
    </g>
    <path d="M262.882 308.216H253.98L205.672 189.617H214.573L262.882 308.216Z" fill="#7AB790"/>
    <path d="M130.977 308.216H139.878L188.186 189.617H179.285L130.977 308.216Z" fill="#54549B"/>
    <path d="M306.423 218.921H95.9074C90.4575 218.921 86.0391 214.503 86.0391 209.052V9.86917C86.0391 4.41839 90.4575 0 95.9074 0H306.423C311.874 0 316.292 4.41839 316.292 9.86917V209.052C316.291 214.503 311.873 218.921 306.423 218.921Z" fill="#1B6334"/>
    <path d="M302.043 207.835H100.293C98.8626 207.835 97.7031 206.676 97.7031 205.245V13.68C97.7031 12.2494 98.8626 11.0898 100.293 11.0898H302.043C303.473 11.0898 304.633 12.2494 304.633 13.68V205.245C304.633 206.676 303.473 207.835 302.043 207.835Z" fill="#1C8A44"/>
    <path d="M287.991 93.7773H121.883V100.629H287.991V93.7773Z" fill="#7AB790"/>
    <path d="M287.991 109.883H121.883V116.735H287.991V109.883Z" fill="#7AB790"/>
    <path d="M251.506 125.98H150.828V132.832H251.506V125.98Z" fill="#7AB790"/>
    <path d="M111.048 54.704H118.848V58.256H111.048V54.704ZM111.384 61.328H120.168V65H106.68V48.2H119.856V51.872H111.384V61.328ZM122.589 65V47.192H127.149V65H122.589ZM147.056 51.776C148.064 51.776 148.96 51.984 149.744 52.4C150.544 52.8 151.168 53.424 151.616 54.272C152.08 55.12 152.312 56.216 152.312 57.56V65H147.752V58.304C147.752 57.376 147.576 56.704 147.224 56.288C146.872 55.856 146.392 55.64 145.784 55.64C145.352 55.64 144.96 55.744 144.608 55.952C144.256 56.16 143.984 56.48 143.792 56.912C143.6 57.328 143.504 57.872 143.504 58.544V65H138.944V58.304C138.944 57.376 138.768 56.704 138.416 56.288C138.08 55.856 137.6 55.64 136.976 55.64C136.528 55.64 136.128 55.744 135.776 55.952C135.44 56.16 135.168 56.48 134.96 56.912C134.768 57.328 134.672 57.872 134.672 58.544V65H130.112V51.992H134.456V55.616L133.592 54.584C134.072 53.656 134.728 52.96 135.56 52.496C136.392 52.016 137.32 51.776 138.344 51.776C139.512 51.776 140.536 52.08 141.416 52.688C142.312 53.28 142.912 54.208 143.216 55.472L141.728 55.16C142.192 54.104 142.888 53.28 143.816 52.688C144.76 52.08 145.84 51.776 147.056 51.776ZM163.135 65V62.576L162.823 61.976V57.512C162.823 56.792 162.599 56.24 162.151 55.856C161.719 55.456 161.023 55.256 160.063 55.256C159.439 55.256 158.807 55.36 158.167 55.568C157.527 55.76 156.983 56.032 156.535 56.384L154.999 53.288C155.735 52.808 156.615 52.44 157.639 52.184C158.679 51.912 159.711 51.776 160.735 51.776C162.847 51.776 164.479 52.264 165.631 53.24C166.799 54.2 167.383 55.712 167.383 57.776V65H163.135ZM159.295 65.216C158.255 65.216 157.375 65.04 156.655 64.688C155.935 64.336 155.383 63.856 154.999 63.248C154.631 62.64 154.447 61.96 154.447 61.208C154.447 60.408 154.647 59.72 155.047 59.144C155.463 58.552 156.095 58.104 156.943 57.8C157.791 57.48 158.887 57.32 160.231 57.32H163.303V59.696H160.855C160.119 59.696 159.599 59.816 159.295 60.056C159.007 60.296 158.863 60.616 158.863 61.016C158.863 61.416 159.015 61.736 159.319 61.976C159.623 62.216 160.039 62.336 160.567 62.336C161.063 62.336 161.511 62.216 161.911 61.976C162.327 61.72 162.631 61.336 162.823 60.824L163.447 62.504C163.207 63.4 162.735 64.08 162.031 64.544C161.343 64.992 160.431 65.216 159.295 65.216ZM176.089 65.216C174.905 65.216 173.825 64.944 172.849 64.4C171.889 63.84 171.121 63.064 170.545 62.072C169.969 61.064 169.681 59.864 169.681 58.472C169.681 57.096 169.969 55.912 170.545 54.92C171.121 53.912 171.889 53.136 172.849 52.592C173.825 52.048 174.905 51.776 176.089 51.776C177.209 51.776 178.153 52.016 178.921 52.496C179.705 52.976 180.297 53.712 180.697 54.704C181.097 55.696 181.297 56.952 181.297 58.472C181.297 60.024 181.105 61.296 180.721 62.288C180.337 63.28 179.761 64.016 178.993 64.496C178.225 64.976 177.257 65.216 176.089 65.216ZM177.049 61.592C177.561 61.592 178.017 61.472 178.417 61.232C178.833 60.992 179.161 60.64 179.401 60.176C179.641 59.696 179.761 59.128 179.761 58.472C179.761 57.816 179.641 57.264 179.401 56.816C179.161 56.352 178.833 56 178.417 55.76C178.017 55.52 177.561 55.4 177.049 55.4C176.521 55.4 176.049 55.52 175.633 55.76C175.233 56 174.913 56.352 174.673 56.816C174.433 57.264 174.313 57.816 174.313 58.472C174.313 59.128 174.433 59.696 174.673 60.176C174.913 60.64 175.233 60.992 175.633 61.232C176.049 61.472 176.521 61.592 177.049 61.592ZM179.905 65V62.768L179.929 58.472L179.689 54.176V47.192H184.249V65H179.905ZM187.183 65V51.992H191.527V55.784L190.879 54.704C191.263 53.728 191.887 53 192.751 52.52C193.615 52.024 194.663 51.776 195.895 51.776V55.88C195.687 55.848 195.503 55.832 195.343 55.832C195.199 55.816 195.039 55.808 194.863 55.808C193.935 55.808 193.183 56.064 192.607 56.576C192.031 57.072 191.743 57.888 191.743 59.024V65H187.183ZM202.551 65.216C201.447 65.216 200.367 65.088 199.311 64.832C198.271 64.576 197.431 64.256 196.791 63.872L198.159 60.752C198.767 61.12 199.479 61.416 200.295 61.64C201.111 61.848 201.911 61.952 202.695 61.952C203.463 61.952 203.991 61.872 204.279 61.712C204.583 61.552 204.735 61.336 204.735 61.064C204.735 60.808 204.591 60.624 204.303 60.512C204.031 60.384 203.663 60.288 203.199 60.224C202.751 60.16 202.255 60.088 201.711 60.008C201.167 59.928 200.615 59.824 200.055 59.696C199.511 59.552 199.007 59.344 198.543 59.072C198.095 58.784 197.735 58.4 197.463 57.92C197.191 57.44 197.055 56.832 197.055 56.096C197.055 55.264 197.295 54.528 197.775 53.888C198.271 53.232 198.991 52.72 199.935 52.352C200.879 51.968 202.031 51.776 203.391 51.776C204.303 51.776 205.223 51.872 206.151 52.064C207.095 52.24 207.887 52.512 208.527 52.88L207.159 55.976C206.519 55.608 205.879 55.36 205.239 55.232C204.599 55.088 203.991 55.016 203.415 55.016C202.647 55.016 202.103 55.104 201.783 55.28C201.479 55.456 201.327 55.672 201.327 55.928C201.327 56.184 201.463 56.384 201.735 56.528C202.007 56.656 202.367 56.76 202.815 56.84C203.279 56.904 203.783 56.976 204.327 57.056C204.871 57.12 205.415 57.224 205.959 57.368C206.519 57.512 207.023 57.728 207.471 58.016C207.935 58.288 208.303 58.664 208.575 59.144C208.847 59.608 208.983 60.208 208.983 60.944C208.983 61.744 208.735 62.464 208.239 63.104C207.759 63.744 207.039 64.256 206.079 64.64C205.135 65.024 203.959 65.216 202.551 65.216ZM218.892 65V62.576L218.58 61.976V57.512C218.58 56.792 218.356 56.24 217.908 55.856C217.476 55.456 216.78 55.256 215.82 55.256C215.196 55.256 214.564 55.36 213.924 55.568C213.284 55.76 212.74 56.032 212.292 56.384L210.756 53.288C211.492 52.808 212.372 52.44 213.396 52.184C214.436 51.912 215.468 51.776 216.492 51.776C218.604 51.776 220.236 52.264 221.388 53.24C222.556 54.2 223.14 55.712 223.14 57.776V65H218.892ZM215.052 65.216C214.012 65.216 213.132 65.04 212.412 64.688C211.692 64.336 211.14 63.856 210.756 63.248C210.388 62.64 210.204 61.96 210.204 61.208C210.204 60.408 210.404 59.72 210.804 59.144C211.22 58.552 211.852 58.104 212.7 57.8C213.548 57.48 214.644 57.32 215.988 57.32H219.06V59.696H216.612C215.876 59.696 215.356 59.816 215.052 60.056C214.764 60.296 214.62 60.616 214.62 61.016C214.62 61.416 214.772 61.736 215.076 61.976C215.38 62.216 215.796 62.336 216.324 62.336C216.82 62.336 217.268 62.216 217.668 61.976C218.084 61.72 218.388 61.336 218.58 60.824L219.204 62.504C218.964 63.4 218.492 64.08 217.788 64.544C217.1 64.992 216.188 65.216 215.052 65.216ZM234.923 65.216C234.155 65.216 233.507 64.96 232.979 64.448C232.451 63.936 232.187 63.288 232.187 62.504C232.187 61.688 232.451 61.04 232.979 60.56C233.507 60.064 234.155 59.816 234.923 59.816C235.691 59.816 236.339 60.064 236.867 60.56C237.395 61.04 237.659 61.688 237.659 62.504C237.659 63.288 237.395 63.936 236.867 64.448C236.339 64.96 235.691 65.216 234.923 65.216ZM246.378 65.216C244.938 65.216 243.65 64.928 242.514 64.352C241.394 63.776 240.514 62.984 239.874 61.976C239.234 60.952 238.914 59.784 238.914 58.472C238.914 57.16 239.234 56 239.874 54.992C240.514 53.984 241.394 53.2 242.514 52.64C243.65 52.064 244.938 51.776 246.378 51.776C247.85 51.776 249.122 52.088 250.194 52.712C251.266 53.336 252.026 54.216 252.474 55.352L248.946 57.152C248.642 56.544 248.266 56.104 247.818 55.832C247.37 55.544 246.882 55.4 246.354 55.4C245.826 55.4 245.346 55.52 244.914 55.76C244.482 56 244.138 56.352 243.882 56.816C243.642 57.264 243.522 57.816 243.522 58.472C243.522 59.144 243.642 59.712 243.882 60.176C244.138 60.64 244.482 60.992 244.914 61.232C245.346 61.472 245.826 61.592 246.354 61.592C246.882 61.592 247.37 61.456 247.818 61.184C248.266 60.896 248.642 60.448 248.946 59.84L252.474 61.64C252.026 62.776 251.266 63.656 250.194 64.28C249.122 64.904 247.85 65.216 246.378 65.216ZM260.578 65.216C259.154 65.216 257.89 64.928 256.786 64.352C255.682 63.776 254.81 62.984 254.17 61.976C253.546 60.952 253.234 59.784 253.234 58.472C253.234 57.16 253.546 56 254.17 54.992C254.81 53.984 255.682 53.2 256.786 52.64C257.89 52.064 259.154 51.776 260.578 51.776C262.002 51.776 263.266 52.064 264.37 52.64C265.49 53.2 266.362 53.984 266.986 54.992C267.61 56 267.922 57.16 267.922 58.472C267.922 59.784 267.61 60.952 266.986 61.976C266.362 62.984 265.49 63.776 264.37 64.352C263.266 64.928 262.002 65.216 260.578 65.216ZM260.578 61.592C261.106 61.592 261.57 61.472 261.97 61.232C262.386 60.992 262.714 60.64 262.954 60.176C263.194 59.696 263.314 59.128 263.314 58.472C263.314 57.816 263.194 57.264 262.954 56.816C262.714 56.352 262.386 56 261.97 55.76C261.57 55.52 261.106 55.4 260.578 55.4C260.066 55.4 259.602 55.52 259.186 55.76C258.786 56 258.458 56.352 258.202 56.816C257.962 57.264 257.842 57.816 257.842 58.472C257.842 59.128 257.962 59.696 258.202 60.176C258.458 60.64 258.786 60.992 259.186 61.232C259.602 61.472 260.066 61.592 260.578 61.592ZM286.978 51.776C287.986 51.776 288.882 51.984 289.666 52.4C290.466 52.8 291.09 53.424 291.538 54.272C292.002 55.12 292.234 56.216 292.234 57.56V65H287.674V58.304C287.674 57.376 287.498 56.704 287.146 56.288C286.794 55.856 286.314 55.64 285.706 55.64C285.274 55.64 284.882 55.744 284.53 55.952C284.178 56.16 283.906 56.48 283.714 56.912C283.522 57.328 283.426 57.872 283.426 58.544V65H278.866V58.304C278.866 57.376 278.69 56.704 278.338 56.288C278.002 55.856 277.522 55.64 276.898 55.64C276.45 55.64 276.05 55.744 275.698 55.952C275.362 56.16 275.09 56.48 274.882 56.912C274.69 57.328 274.594 57.872 274.594 58.544V65H270.034V51.992H274.378V55.616L273.514 54.584C273.994 53.656 274.65 52.96 275.482 52.496C276.314 52.016 277.242 51.776 278.266 51.776C279.434 51.776 280.458 52.08 281.338 52.688C282.234 53.28 282.834 54.208 283.138 55.472L281.65 55.16C282.114 54.104 282.81 53.28 283.738 52.688C284.682 52.08 285.762 51.776 286.978 51.776Z" fill="white"/>
    <path d="M108.25 39L105.339 30.2169H107.033L109.63 38.1593H108.789L111.487 30.2169H112.993L115.615 38.1593H114.799L117.459 30.2169H119.015L116.104 39H114.373L111.976 31.8355H112.428L109.994 39H108.25ZM121.85 33.8682H126.216V35.2107H121.85V33.8682ZM121.975 37.6324H126.931V39H120.344V30.2169H126.756V31.5846H121.975V37.6324ZM128.75 39V30.2169H130.381V37.6198H134.973V39H128.75ZM140.167 39.1255C139.498 39.1255 138.875 39.0167 138.297 38.7992C137.729 38.5734 137.231 38.2597 136.804 37.8582C136.386 37.4483 136.06 36.9673 135.826 36.4153C135.591 35.8632 135.474 35.2609 135.474 34.6085C135.474 33.956 135.591 33.3537 135.826 32.8017C136.06 32.2496 136.39 31.7728 136.817 31.3713C137.243 30.9614 137.741 30.6477 138.31 30.4302C138.879 30.2044 139.502 30.0915 140.18 30.0915C140.899 30.0915 141.556 30.2169 142.149 30.4679C142.743 30.7105 143.245 31.0743 143.655 31.5595L142.601 32.5507C142.283 32.2078 141.928 31.9526 141.535 31.7853C141.141 31.6097 140.715 31.5218 140.255 31.5218C139.795 31.5218 139.372 31.5971 138.988 31.7477C138.611 31.8983 138.281 32.1116 137.996 32.3876C137.72 32.6636 137.503 32.9899 137.344 33.3663C137.193 33.7427 137.118 34.1568 137.118 34.6085C137.118 35.0602 137.193 35.4742 137.344 35.8506C137.503 36.2271 137.72 36.5533 137.996 36.8293C138.281 37.1054 138.611 37.3187 138.988 37.4692C139.372 37.6198 139.795 37.6951 140.255 37.6951C140.715 37.6951 141.141 37.6114 141.535 37.4441C141.928 37.2685 142.283 37.005 142.601 36.6537L143.655 37.6574C143.245 38.1342 142.743 38.4981 142.149 38.7491C141.556 39 140.895 39.1255 140.167 39.1255ZM149.15 39.1255C148.464 39.1255 147.832 39.0125 147.255 38.7867C146.678 38.5608 146.176 38.2472 145.749 37.8457C145.323 37.4358 144.992 36.959 144.758 36.4153C144.524 35.8632 144.407 35.2609 144.407 34.6085C144.407 33.956 144.524 33.3579 144.758 32.8142C144.992 32.2621 145.323 31.7853 145.749 31.3838C146.176 30.9739 146.678 30.6561 147.255 30.4302C147.832 30.2044 148.46 30.0915 149.137 30.0915C149.823 30.0915 150.45 30.2044 151.019 30.4302C151.596 30.6561 152.098 30.9739 152.525 31.3838C152.952 31.7853 153.282 32.2621 153.516 32.8142C153.75 33.3579 153.867 33.956 153.867 34.6085C153.867 35.2609 153.75 35.8632 153.516 36.4153C153.282 36.9673 152.952 37.4441 152.525 37.8457C152.098 38.2472 151.596 38.5608 151.019 38.7867C150.45 39.0125 149.827 39.1255 149.15 39.1255ZM149.137 37.6951C149.581 37.6951 149.99 37.6198 150.367 37.4692C150.743 37.3187 151.069 37.1054 151.345 36.8293C151.622 36.5449 151.835 36.2187 151.985 35.8506C152.144 35.4742 152.224 35.0602 152.224 34.6085C152.224 34.1568 152.144 33.7469 151.985 33.3788C151.835 33.0024 151.622 32.6762 151.345 32.4002C151.069 32.1157 150.743 31.8983 150.367 31.7477C149.99 31.5971 149.581 31.5218 149.137 31.5218C148.694 31.5218 148.284 31.5971 147.908 31.7477C147.539 31.8983 147.213 32.1157 146.929 32.4002C146.653 32.6762 146.435 33.0024 146.276 33.3788C146.126 33.7469 146.051 34.1568 146.051 34.6085C146.051 35.0518 146.126 35.4617 146.276 35.8381C146.435 36.2145 146.653 36.5449 146.929 36.8293C147.205 37.1054 147.531 37.3187 147.908 37.4692C148.284 37.6198 148.694 37.6951 149.137 37.6951ZM155.596 39V30.2169H156.939L160.778 36.6286H160.076L163.853 30.2169H165.195L165.208 39H163.664L163.652 32.6385H163.978L160.766 37.9962H160.038L156.776 32.6385H157.152V39H155.596ZM169.086 33.8682H173.452V35.2107H169.086V33.8682ZM169.211 37.6324H174.167V39H167.58V30.2169H173.992V31.5846H169.211V37.6324ZM184.703 39V31.5971H181.792V30.2169H189.245V31.5971H186.334V39H184.703ZM194.462 39.1255C193.776 39.1255 193.144 39.0125 192.567 38.7867C191.99 38.5608 191.488 38.2472 191.062 37.8457C190.635 37.4358 190.305 36.959 190.07 36.4153C189.836 35.8632 189.719 35.2609 189.719 34.6085C189.719 33.956 189.836 33.3579 190.07 32.8142C190.305 32.2621 190.635 31.7853 191.062 31.3838C191.488 30.9739 191.99 30.6561 192.567 30.4302C193.144 30.2044 193.772 30.0915 194.449 30.0915C195.135 30.0915 195.763 30.2044 196.331 30.4302C196.909 30.6561 197.411 30.9739 197.837 31.3838C198.264 31.7853 198.594 32.2621 198.828 32.8142C199.063 33.3579 199.18 33.956 199.18 34.6085C199.18 35.2609 199.063 35.8632 198.828 36.4153C198.594 36.9673 198.264 37.4441 197.837 37.8457C197.411 38.2472 196.909 38.5608 196.331 38.7867C195.763 39.0125 195.139 39.1255 194.462 39.1255ZM194.449 37.6951C194.893 37.6951 195.303 37.6198 195.679 37.4692C196.055 37.3187 196.382 37.1054 196.658 36.8293C196.934 36.5449 197.147 36.2187 197.298 35.8506C197.457 35.4742 197.536 35.0602 197.536 34.6085C197.536 34.1568 197.457 33.7469 197.298 33.3788C197.147 33.0024 196.934 32.6762 196.658 32.4002C196.382 32.1157 196.055 31.8983 195.679 31.7477C195.303 31.5971 194.893 31.5218 194.449 31.5218C194.006 31.5218 193.596 31.5971 193.22 31.7477C192.852 31.8983 192.525 32.1157 192.241 32.4002C191.965 32.6762 191.748 33.0024 191.589 33.3788C191.438 33.7469 191.363 34.1568 191.363 34.6085C191.363 35.0518 191.438 35.4617 191.589 35.8381C191.748 36.2145 191.965 36.5449 192.241 36.8293C192.517 37.1054 192.843 37.3187 193.22 37.4692C193.596 37.6198 194.006 37.6951 194.449 37.6951Z" fill="#EAC457"/>
    <path d="M253.742 187.95C243.127 185.024 236.872 174.008 239.799 163.394C242.724 152.78 253.74 146.524 264.354 149.451C274.969 152.377 281.224 163.392 278.298 174.007C275.372 184.621 264.356 190.876 253.742 187.95ZM263.602 152.18C254.493 149.67 245.039 155.038 242.528 164.146C240.017 173.256 245.385 182.709 254.494 185.22C263.603 187.731 273.057 182.363 275.568 173.254C278.079 164.145 272.711 154.691 263.602 152.18Z" fill="#EAC457"/>
    <path d="M255.628 181.142C248.686 179.229 244.615 171.95 246.553 164.918L248.339 165.41C246.675 171.445 250.169 177.692 256.127 179.334C262.086 180.977 268.286 177.403 269.95 171.367L271.735 171.86C269.797 178.892 262.571 183.056 255.628 181.142Z" fill="#EAC457"/>
    <path d="M256.032 160.195L254.273 166.574L256.059 167.066L257.817 160.687L256.032 160.195Z" fill="#EAC457"/>
    <path d="M263.758 162.32L262 168.699L263.786 169.191L265.544 162.812L263.758 162.32Z" fill="#EAC457"/>
    <path d="M201.171 338.997C295.185 338.997 371.397 330.499 371.397 320.018C371.397 309.536 295.185 301.039 201.171 301.039C107.158 301.039 30.9453 309.536 30.9453 320.018C30.9453 330.499 107.158 338.997 201.171 338.997Z" fill="#1C8A44"/>
    <path d="M61.4394 301.562H57.8917C55.6475 301.562 53.8281 299.743 53.8281 297.499V290.403C53.8281 288.159 55.6475 286.34 57.8917 286.34H61.4394V301.562Z" fill="white"/>
    <path d="M127.219 286.34H130.767C133.011 286.34 134.83 288.159 134.83 290.403V297.499C134.83 299.743 133.011 301.562 130.767 301.562H127.219V286.34Z" fill="white"/>
    <path d="M112.316 319.156H76.6173C70.3571 319.156 64.9232 316.267 61.8301 311.96C59.8216 309.175 58.7989 305.799 59.1562 302.232L62.1568 272.621H125.97L126.808 279.115L129.735 301.856C130.917 311.079 122.784 319.156 112.316 319.156Z" fill="#CA324C"/>
    <path opacity="0.2" d="M112.314 319.159H76.6154C70.3551 319.159 64.9212 316.269 61.8281 311.963C139.386 324.636 119.923 279.45 119.923 279.45L126.805 279.117L129.732 301.859C130.915 311.082 122.782 319.159 112.314 319.159Z" fill="#393359"/>
    <path d="M106.519 303.787H83.5147C79.8993 303.787 76.9688 300.856 76.9688 297.241V290.922H113.064V297.241C113.065 300.856 110.134 303.787 106.519 303.787Z" fill="#EAC457"/>
    <path d="M71.8047 225.594V243.238H80.1748V227.798L71.8047 225.594Z" fill="#9D2843"/>
    <path d="M89.2015 238.783L80.1748 243.099L71.8047 225.594C76.7896 223.211 82.7634 225.319 85.1476 230.305L89.2015 238.783Z" fill="#CA324C"/>
    <path d="M115.776 225.328V242.972H107.406V227.532L115.776 225.328Z" fill="#9D2843"/>
    <path d="M98.375 238.517L107.402 242.833L115.772 225.329C110.787 222.945 104.813 225.054 102.429 230.039L98.375 238.517Z" fill="#CA324C"/>
    <path d="M125.023 281.683H63.9093C60.9087 281.683 58.6597 279.016 59.2511 276.163L59.9842 272.62L65.8928 244.13C66.8109 239.687 70.8213 236.496 75.486 236.496H112.737C113.79 236.496 114.807 236.656 115.762 236.964C118.985 237.975 121.523 240.581 122.293 243.939L129.656 276.07C130.316 278.948 128.061 281.683 125.023 281.683Z" fill="white"/>
    <path opacity="0.15" d="M125.023 281.684H63.9093C60.9087 281.684 58.6597 279.016 59.2511 276.163L59.9842 272.62C141.184 281.344 115.762 236.965 115.762 236.965C118.985 237.975 121.523 240.582 122.293 243.94L129.656 276.071C130.316 278.948 128.061 281.684 125.023 281.684Z" fill="#CA324C"/>
    <path d="M73.3061 273.786C73.3061 275.238 72.1289 276.415 70.6765 276.415C69.2241 276.415 68.0469 275.238 68.0469 273.786C68.0469 272.333 69.2241 271.156 70.6765 271.156C72.1289 271.156 73.3061 272.333 73.3061 273.786Z" fill="#393359"/>
    <path d="M119.916 273.786C119.916 275.238 118.738 276.415 117.286 276.415C115.833 276.415 114.656 275.238 114.656 273.786C114.656 272.333 115.833 271.156 117.286 271.156C118.738 271.156 119.916 272.333 119.916 273.786Z" fill="#393359"/>
    <path d="M104.047 274.838H85.9912C84.1405 274.838 82.6406 273.338 82.6406 271.487V251.23H107.398V271.487C107.398 273.338 105.897 274.838 104.047 274.838Z" fill="#EAC457"/>
    <path d="M101.65 269.769H88.3807C87.605 269.769 86.9766 269.141 86.9766 268.365V256.754H103.054V268.365C103.054 269.14 102.426 269.769 101.65 269.769Z" stroke="white" stroke-width="0.371673" stroke-miterlimit="10"/>
    <path d="M141.065 194.724L131 217.602L106.185 198.734L105.624 198.308C101.773 195.379 100.109 190.388 101.435 185.735L102.226 182.947L111.177 151.456L111.401 151.413L121.28 149.422L121.166 152.225L119.939 182.915L141.065 194.724Z" fill="#E5BCCE"/>
    <path d="M122.916 134.673C122.916 134.673 123.219 128.514 123.092 124.316C123.032 122.316 120.541 122.059 120.051 123.677C120.079 121.112 117.757 121.308 117.06 121.987C116.512 122.52 116.506 123.239 116.506 123.239C116.494 122.84 115.623 121.863 114.579 122.376C113.216 123.044 113.11 126.781 113.11 126.781C113.11 126.781 112.899 125.48 111.75 125.53C110.776 125.573 110.23 126.497 109.908 129.174C109.592 131.799 109.543 136.007 109.005 138.307C108.466 140.607 107.024 145.533 110.943 150.866C114.42 155.595 122.56 153.842 124.255 148.154C125.28 144.712 125.711 143.273 125.973 139.904C126.263 136.185 126.959 132.275 125.431 131.867C124.055 131.501 123.536 132.683 123.278 133.511C122.916 134.673 122.916 134.673 122.916 134.673Z" fill="#E5BCCE"/>
    <path d="M120.055 123.676L119.219 135.349" stroke="#C53863" stroke-width="0.309553" stroke-miterlimit="10"/>
    <path d="M116.508 123.238L115.68 134.808" stroke="#C53863" stroke-width="0.309553" stroke-miterlimit="10"/>
    <path d="M113.085 126.668L112.406 136.144" stroke="#C53863" stroke-width="0.309553" stroke-miterlimit="10"/>
    <path d="M122.914 134.672C122.217 137.376 121.702 140.048 121.702 140.048C121.702 140.048 115.52 139.283 114.523 146.428" stroke="#C53863" stroke-width="0.309553" stroke-miterlimit="10"/>
    <path d="M119.936 182.914L116.109 183.579" stroke="#C13E5D" stroke-width="0.253146" stroke-miterlimit="10"/>
    <path d="M110.124 191.515C110.124 194.543 108.553 197.21 106.185 198.732L105.624 198.306C101.773 195.377 100.109 190.386 101.435 185.733L102.226 182.945C106.65 183.3 110.124 187.004 110.124 191.515Z" fill="#D69EB9"/>
    <path d="M154.778 215.395L149.361 223.992C147.796 224.445 135.5 223.119 127.498 222.186H127.492C123.504 221.723 120.586 221.358 120.586 221.358L126.27 186.457L144.877 192.375L151.074 206.782L154.778 215.395Z" fill="white"/>
    <path opacity="0.1" d="M154.78 215.394L149.363 223.991C147.798 224.444 135.502 223.118 127.5 222.185C148.403 224.351 146.352 201.582 146.352 201.582L151.077 206.781L154.78 215.394Z" fill="#4D477D"/>
    <path d="M212.378 192.383C212.378 192.383 217.421 195.788 221.85 206.172C226.279 216.557 230.026 230.353 230.026 230.353L206.861 235.293L203.625 208.381L212.378 192.383Z" fill="white"/>
    <path opacity="0.1" d="M207.391 213.105L215.944 236.085L208.623 240.968L207.391 213.105Z" fill="#4D477D"/>
    <path d="M162.227 190.357L165.811 185.898L177.319 183.457L190.837 185.247L195.188 189.022L162.227 190.357Z" fill="white"/>
    <path d="M207.387 213.105L209.765 266.918H148.605L148.708 261.141V261.135L149.412 220.807L144.875 192.382L167.997 188.241L190.269 188.094L212.372 192.381L207.381 212.941C207.381 212.941 207.381 212.996 207.387 213.105Z" fill="#EAC457"/>
    <path d="M168.828 190.362L187.784 190.06L185.146 177.745L184.027 172.523L171.817 172.752L169.584 185.903L168.828 190.362Z" fill="#E5BCCE"/>
    <path d="M169.586 185.902C173.786 185.545 180.199 183.898 185.148 177.744L184.028 172.523L171.82 172.752L169.586 185.902Z" fill="#D69EB9"/>
    <path d="M178.681 204.393L178.547 183.59L190.828 188.101L178.681 204.393Z" fill="#E5BCCE"/>
    <path d="M178.55 183.59L178.685 204.393L166.328 188.259L178.55 183.59Z" fill="#E5BCCE"/>
    <path d="M197.111 157.59C196.725 165.095 193.072 171.74 187.447 175.502C187.025 175.786 186.585 176.06 186.133 176.311C185.958 176.409 185.779 176.511 185.606 176.586C183.738 177.567 181.684 178.241 179.515 178.561C175.824 179.092 172.029 178.552 168.5 177.128C163.36 175.047 158.795 171.132 155.964 166.077C155.058 164.468 154.322 162.758 153.798 160.951C153.54 160.052 153.329 159.119 153.179 158.18C152.888 156.37 152.768 154.586 152.814 152.851C152.831 152.185 152.875 151.53 152.946 150.881C153.002 150.355 153.066 149.834 153.16 149.309C153.16 149.309 153.165 149.296 153.16 149.287C153.212 148.959 153.263 148.662 153.337 148.348C153.357 148.215 153.395 148.084 153.428 147.952C153.441 147.875 153.459 147.788 153.481 147.702L153.49 147.698C153.619 147.097 153.792 146.512 153.984 145.927C154.043 145.751 154.097 145.574 154.165 145.389C155.218 142.426 156.883 139.773 159.133 137.595C159.133 137.595 159.133 137.595 159.137 137.591C159.142 137.591 159.142 137.591 159.142 137.591C161.469 135.339 164.421 133.589 167.979 132.533C167.984 132.528 167.989 132.529 167.989 132.529C169.246 132.154 170.583 131.866 171.989 131.672C175.143 131.236 178.252 131.571 181.148 132.566C181.529 132.694 181.908 132.835 182.283 132.99C188.51 135.52 193.644 141.07 195.898 148.226C196.296 149.467 196.602 150.74 196.812 152.064C197.112 153.936 197.212 155.789 197.111 157.59Z" fill="#2C2A45"/>
    <path d="M154.531 145.087C151.403 140.831 151.932 136.617 153.668 136.081C155.403 135.546 155.035 143.221 155.035 143.221L154.531 145.087Z" fill="#2C2A45"/>
    <path d="M154.573 145.955C150.97 144.081 149.904 140.994 150.92 140.035C151.937 139.077 154.288 144.497 154.288 144.497L154.573 145.955Z" fill="#2C2A45"/>
    <path d="M192.126 159.317C195.408 155.169 199.114 155.297 200.202 160.635C201.29 165.974 195.833 169.814 191.83 167.873C187.828 165.933 192.126 159.317 192.126 159.317Z" fill="#E5BCCE"/>
    <path d="M195.546 159.731C197.519 159.544 198.011 165.418 193.734 165.239L194.428 164.037L194.597 162.808L194.109 161.545L195.546 159.731Z" fill="#D69EB9"/>
    <path d="M193.016 165.977C195.729 163.547 194.097 161.545 194.097 161.545C194.097 161.545 196.882 156.903 197.506 160.701" stroke="#C13E5D" stroke-width="0.253146" stroke-miterlimit="10"/>
    <path d="M160.069 163.866C156.543 159.923 152.851 160.274 152.086 165.667C151.32 171.062 156.999 174.566 160.877 172.389C164.757 170.212 160.069 163.866 160.069 163.866Z" fill="#E5BCCE"/>
    <path d="M156.788 164.529C154.81 164.401 154.594 170.218 158.864 169.914C158.864 169.914 158.05 169.045 157.863 168.018C157.693 167.089 158.275 166.3 158.275 166.3L156.788 164.529Z" fill="#D69EB9"/>
    <path d="M159.581 170.563C156.727 168.301 158.235 166.204 158.235 166.204C158.235 166.204 155.176 161.738 154.781 165.566" stroke="#C13E5D" stroke-width="0.253146" stroke-miterlimit="10"/>
    <path d="M165.143 175.24V175.245C165.317 175.488 165.495 175.721 165.68 175.954L165.684 175.965C168.254 179.167 171.902 181.264 177.08 181.047C184.02 180.764 188.003 177.613 190.157 173.281C190.531 172.537 190.847 171.753 191.117 170.947C194.7 160.236 189.717 143.672 189.717 143.672L159.734 147.727C159.734 147.727 158.485 165.975 165.143 175.24Z" fill="#E5BCCE"/>
    <path d="M190.574 160.34C190.437 159.167 189.988 158.102 189.319 157.228C188.898 156.674 188.386 156.196 187.813 155.814C186.861 155.177 185.741 154.794 184.551 154.744C184.229 154.73 183.906 154.74 183.573 154.781C180.552 155.127 178.282 157.541 177.997 160.449C177.997 160.462 177.992 160.483 177.995 160.495C177.974 160.486 177.958 160.477 177.937 160.467C177.399 160.167 176.714 159.927 175.967 160.017L175.941 160.016C175.451 160.083 174.996 160.27 174.591 160.583C174.486 160.663 174.384 160.752 174.282 160.849C174.248 160.746 174.211 160.643 174.157 160.538V160.534C173.119 157.966 170.47 156.288 167.582 156.619C165.709 156.832 164.118 157.854 163.118 159.295C162.265 160.516 161.844 162.034 162.026 163.617C162.425 167.086 165.567 169.579 169.028 169.181C172.415 168.787 174.87 165.775 174.603 162.401C174.85 162.005 175.109 161.702 175.398 161.512C175.614 161.352 175.847 161.256 176.09 161.224C176.09 161.224 176.098 161.225 176.103 161.225C176.811 161.138 177.492 161.573 177.869 161.875C177.939 161.933 178.005 161.982 178.054 162.023C178.561 165.356 181.627 167.733 185.015 167.343C188.479 166.942 190.969 163.8 190.574 160.34ZM168.887 167.972C166.088 168.291 163.548 166.283 163.229 163.48C163.057 161.949 163.577 160.503 164.546 159.449C165.346 158.572 166.45 157.969 167.722 157.823C169.812 157.578 171.768 158.652 172.75 160.377C173.08 160.96 173.301 161.611 173.379 162.32C173.702 165.113 171.69 167.65 168.887 167.972ZM184.874 166.138C182.079 166.462 179.539 164.441 179.22 161.646C179.16 161.113 179.183 160.588 179.283 160.079C179.698 157.949 181.444 156.246 183.709 155.988C184.072 155.946 184.432 155.945 184.783 155.978C185.785 156.075 186.709 156.464 187.467 157.068C187.672 157.229 187.859 157.408 188.037 157.599C188.762 158.361 189.243 159.355 189.37 160.482C189.689 163.28 187.673 165.82 184.874 166.138Z" fill="white"/>
    <path d="M175.971 177.31C176.025 177.805 176.983 178.108 178.112 177.986C179.241 177.863 180.113 177.362 180.06 176.867C180.006 176.371 179.047 176.069 177.918 176.191C176.789 176.314 175.918 176.814 175.971 177.31Z" fill="#D69EB9"/>
    <path d="M169.73 155.093C165.063 156.639 162.035 156.047 165.968 154.38C169.9 152.712 172.148 154.293 169.73 155.093Z" fill="#393359"/>
    <path d="M174.172 167.341C174.792 168.773 175.981 169.697 177.234 169.561C178.433 169.431 179.366 168.369 179.707 166.938" stroke="#C13E5D" stroke-width="0.253146" stroke-miterlimit="10"/>
    <path d="M172.07 172.476C172.257 172.75 172.473 173.034 172.761 173.311C173.68 174.239 175.176 175.075 177.597 174.908L177.602 174.918L177.779 174.899L177.785 174.884C180.048 174.641 181.37 173.665 182.13 172.649C182.425 172.267 182.64 171.872 182.788 171.52C183.123 170.711 183.175 170.094 183.175 170.094L171.438 171.145C171.438 171.145 171.587 171.745 172.07 172.476Z" fill="#C13E5D"/>
    <path d="M172.07 172.476C172.257 172.749 172.473 173.033 172.761 173.31C175.352 171.89 178.572 171.358 182.13 172.649C182.425 172.267 182.64 171.872 182.788 171.52C183.123 170.711 183.175 170.094 183.175 170.094L171.438 171.145C171.438 171.145 171.587 171.744 172.07 172.476Z" fill="#2C2A45"/>
    <path d="M192.384 162.231C196.543 157.391 192.297 148.078 192.297 148.078L189.775 144.908L188.755 143.57C188.755 143.57 188.384 150.846 189.622 155.981C190.715 160.516 192.384 162.231 192.384 162.231Z" fill="#2C2A45"/>
    <path d="M160.895 166.737C155.673 163.071 155.932 152.402 155.932 152.402L158.747 149.507L160.711 147.977C160.711 147.977 161.811 154.884 161.833 160.577C161.848 164.514 160.895 166.737 160.895 166.737Z" fill="#2C2A45"/>
    <path d="M185.585 160.346C185.576 159.635 184.987 159.061 184.276 159.07C183.564 159.08 182.99 159.669 183 160.38L183.019 161.773C183.028 162.484 183.617 163.058 184.329 163.049C185.039 163.039 185.613 162.45 185.604 161.739L185.585 160.346Z" fill="#2C2A45"/>
    <path d="M169.585 161.873C169.576 161.163 168.987 160.588 168.276 160.598C167.565 160.607 166.99 161.196 167 161.908L167.019 163.301C167.028 164.011 167.617 164.585 168.329 164.576C169.039 164.566 169.613 163.977 169.603 163.266L169.585 161.873Z" fill="#2C2A45"/>
    <path d="M197.568 150.8C196.126 160.183 184.541 155.128 178.035 150.8C167.922 144.068 161.837 148.133 160.672 148.78C160.267 149.065 160.011 149.298 159.959 149.351C159.951 149.358 159.951 149.358 159.943 149.366C159.943 149.366 158.501 147.639 158.944 144.07C158.944 144.07 158.974 144.1 159.027 144.137C159.02 144.122 159.012 144.108 159.004 144.092L158.944 144.07C159.245 139.532 167.014 127.116 180.717 129.521C195.751 132.157 199.018 141.41 197.568 150.8Z" fill="#2C2A45"/>
    <path d="M190.78 188.168L178.633 204.46L186.766 201.879L185.727 200.097L190.564 199.577L195.181 189.022L190.78 188.168Z" fill="white"/>
    <path d="M178.69 204.383L166.334 188.25L162.227 190.356L167.297 200.466L171.45 200.317L170.34 202.842L178.69 204.383Z" fill="white"/>
    <path d="M164.091 308.635C171.861 305.236 171.861 305.236 171.861 305.236L194.734 290.473L203.493 304.044L183.089 315.07C177.07 318.201 175.94 321.183 171.695 326.694C170.937 327.677 169.499 327.809 168.565 326.992L157.889 317.994C152.092 312.916 158.53 311.067 164.091 308.635Z" fill="#D69EB9"/>
    <path d="M162 320.544C162 320.544 165.112 318.003 162.87 316.484" stroke="#C13E5D" stroke-width="0.253146" stroke-miterlimit="10"/>
    <path d="M164.68 322.892C164.68 322.892 168.129 320.485 164.836 318.371" stroke="#C13E5D" stroke-width="0.253146" stroke-miterlimit="10"/>
    <path d="M167.156 325.066C167.156 325.066 170.405 321.856 167.254 320.613" stroke="#C13E5D" stroke-width="0.253146" stroke-miterlimit="10"/>
    <path d="M160.981 317.235C161.661 316.258 162.145 314.865 160.959 313.489C158.796 310.98 156.742 313.523 156.742 313.523" stroke="#C13E5D" stroke-width="0.253146" stroke-miterlimit="10"/>
    <path d="M169.406 323.137C169.924 323.274 170.541 323.665 170.938 324.671C171.063 324.989 171.043 325.301 170.941 325.591" stroke="#C13E5D" stroke-width="0.253146" stroke-miterlimit="10"/>
    <path d="M177.389 311.772C177.389 311.772 176.528 308.806 172.734 307.172L179.511 309.35" stroke="#C67D82" stroke-width="0.793637" stroke-miterlimit="10"/>
    <path d="M253.564 282.489C240.259 299.041 193.199 312.8 193.199 312.8L182.252 293.788L182.144 293.974L171.305 312.8C171.305 312.8 166.142 311.291 158.753 308.671L158.75 308.667C143.83 303.377 119.839 293.558 110.94 282.489C109.566 280.782 108.4 278.975 107.459 277.137C104.686 271.705 103.913 265.995 105.805 261.769C109.481 253.55 123.229 250.933 151.916 266.853H212.588C261.03 239.972 266.87 265.938 253.564 282.489Z" fill="#1C8A44"/>
    <path d="M179.547 296.359L193.435 313.118C193.435 313.118 198.599 311.608 205.988 308.988L205.991 308.985C200.732 291.247 194.141 285.945 194.141 285.945L179.547 296.359Z" fill="#1C8A44"/>
    <path d="M182.587 281.403C176.445 281.403 177.68 268.984 177.68 268.984" stroke="#1C8A44" stroke-width="0.54548" stroke-miterlimit="10"/>
    <path d="M182.594 268.98V293.818" stroke="#1C8A44" stroke-width="0.54548" stroke-miterlimit="10"/>
    <path d="M152.234 266.827C169.966 285.385 179.164 266.827 197.81 266.827L167.728 255.234L152.234 266.827Z" fill="white"/>
    <path d="M113.127 269.669C110.666 272.651 108.952 275.232 107.803 277.455C105.03 272.023 104.256 266.313 106.149 262.088C116.277 256.717 123.737 256.811 113.127 269.669Z" fill="#1C8A44"/>
    <path d="M252.067 269.669C254.529 272.651 256.242 275.232 257.392 277.455C260.165 272.023 260.938 266.313 259.046 262.088C248.918 256.717 241.458 256.811 252.067 269.669Z" fill="#1C8A44"/>
    <path d="M232.938 262.223C232.938 262.223 196.903 282.783 182.25 294.103" stroke="#28283D" stroke-width="0.793637" stroke-miterlimit="10"/>
    <path d="M201.817 308.635C194.046 305.236 194.046 305.236 194.046 305.236L171.174 290.473L162.414 304.044L182.818 315.07C188.837 318.201 189.967 321.183 194.213 326.694C194.97 327.677 196.409 327.809 197.342 326.992L208.018 317.994C213.815 312.916 207.377 311.067 201.817 308.635Z" fill="#E5BCCE"/>
    <path d="M203.916 320.544C203.916 320.544 200.805 318.003 203.046 316.484" stroke="#C13E5D" stroke-width="0.253146" stroke-miterlimit="10"/>
    <path d="M201.229 322.892C201.229 322.892 197.779 320.485 201.073 318.371" stroke="#C13E5D" stroke-width="0.253146" stroke-miterlimit="10"/>
    <path d="M198.747 325.066C198.747 325.066 195.498 321.856 198.649 320.613" stroke="#C13E5D" stroke-width="0.253146" stroke-miterlimit="10"/>
    <path d="M204.918 317.235C204.238 316.258 203.753 314.865 204.94 313.489C207.104 310.98 209.157 313.523 209.157 313.523" stroke="#C13E5D" stroke-width="0.253146" stroke-miterlimit="10"/>
    <path d="M196.501 323.137C195.984 323.274 195.367 323.665 194.97 324.671C194.844 324.989 194.865 325.301 194.967 325.591" stroke="#C13E5D" stroke-width="0.253146" stroke-miterlimit="10"/>
    <path d="M188.505 311.772C188.505 311.772 189.366 308.806 193.16 307.172L186.383 309.35" stroke="#C13E5D" stroke-width="0.253146" stroke-miterlimit="10"/>
    <path d="M184.634 295.847L171.65 313.122C171.65 313.122 166.486 311.612 159.097 308.992L159.094 308.989C164.353 291.251 170.944 285.949 170.944 285.949L184.634 295.847Z" fill="#1C8A44"/>
    <path d="M131.906 262.223C131.906 262.223 167.941 282.783 182.594 294.103" stroke="#28283D" stroke-width="0.793637" stroke-miterlimit="10"/>
    <path d="M209.768 266.914C209.768 266.914 158.819 271.218 152.366 266.914C152.322 266.887 152.279 266.859 152.234 266.827L152.616 261.797L152.981 256.992L166.678 250.266L189.791 254.984L191.013 255.235L209.768 266.914Z" fill="#EAC457"/>
    <path opacity="0.1" d="M209.77 266.914C209.77 266.914 158.821 271.218 152.368 266.914H148.609L148.713 261.137V261.132C150.044 261.388 151.348 261.611 152.619 261.797C169.862 264.378 181.688 260.99 189.794 254.984C207.817 241.647 207.457 215.403 207.391 213.102L209.77 266.914Z" fill="#CA324C"/>
    <path d="M242.472 261.29L198.05 270.584C196.407 270.928 194.796 269.875 194.452 268.232L192.518 258.986C192.175 257.343 193.228 255.732 194.871 255.388L239.292 246.094L242.472 261.29Z" fill="white"/>
    <path opacity="0.4" d="M240.286 250.835L193.625 260.598L193.8 261.436L240.461 251.673L240.286 250.835Z" fill="#A1D2E4"/>
    <path opacity="0.4" d="M240.801 253.288L194.141 263.051L194.316 263.889L240.977 254.126L240.801 253.288Z" fill="#A1D2E4"/>
    <path opacity="0.4" d="M241.833 258.198L195.172 267.961L195.347 268.799L242.008 259.036L241.833 258.198Z" fill="#A1D2E4"/>
    <path opacity="0.4" d="M239.77 248.381L193.109 258.145L193.285 258.983L239.945 249.219L239.77 248.381Z" fill="#A1D2E4"/>
    <path opacity="0.4" d="M241.317 255.745L194.656 265.508L194.832 266.346L241.492 256.583L241.317 255.745Z" fill="#A1D2E4"/>
    <path d="M242.628 262.032L198.792 271.203C196.423 271.699 194.091 270.174 193.595 267.804L191.906 259.731C191.41 257.362 192.934 255.03 195.304 254.535L239.14 245.363L239.448 246.836L195.612 256.007C194.054 256.333 193.052 257.866 193.379 259.424L195.068 267.497C195.393 269.055 196.926 270.058 198.484 269.732L242.32 260.56L242.628 262.032Z" fill="#C13E5D"/>
    <path d="M238.634 259.647L235.064 257.32L232.728 260.883L231.031 252.775L236.937 251.539L238.634 259.647Z" fill="#EAC457"/>
    <path d="M195.259 253.914L239.67 244.571C241.313 244.225 242.365 242.613 242.019 240.97L240.075 231.727C239.729 230.084 238.117 229.032 236.474 229.378L192.062 238.721L195.259 253.914Z" fill="white"/>
    <path opacity="0.4" d="M193.224 244.304L239.875 234.488L239.699 233.65L193.048 243.466L193.224 244.304Z" fill="#A1D2E4"/>
    <path opacity="0.4" d="M193.732 246.757L240.383 236.941L240.207 236.104L193.555 245.919L193.732 246.757Z" fill="#A1D2E4"/>
    <path opacity="0.4" d="M194.771 251.659L241.422 241.844L241.246 241.006L194.594 250.821L194.771 251.659Z" fill="#A1D2E4"/>
    <path opacity="0.4" d="M192.708 241.847L239.359 232.031L239.183 231.193L192.532 241.009L192.708 241.847Z" fill="#A1D2E4"/>
    <path opacity="0.4" d="M194.255 249.206L240.906 239.391L240.73 238.553L194.079 248.368L194.255 249.206Z" fill="#A1D2E4"/>
    <path d="M195.412 254.651L239.238 245.431C241.607 244.933 243.129 242.599 242.63 240.231L240.933 232.159C240.435 229.79 238.101 228.268 235.732 228.767L191.906 237.986L192.216 239.459L236.042 230.239C237.6 229.912 239.133 230.912 239.461 232.47L241.159 240.541C241.486 242.099 240.486 243.633 238.928 243.96L195.102 253.18L195.412 254.651Z" fill="#619747"/>
    <path d="M198.119 250.859L200.452 247.294L204.023 249.617L202.318 241.512L196.414 242.753L198.119 250.859Z" fill="#EAC457"/>
    <path d="M232.819 223.007L229.969 229.535L230.017 229.556L232.867 223.028L232.819 223.007Z" fill="#C67D82"/>
    <path d="M226.866 230.58C225.745 229.969 225.314 228.501 225.907 227.318L229.285 220.589C229.878 219.406 231.281 218.939 232.402 219.55C233.523 220.162 233.954 221.629 233.36 222.812L229.983 229.542C229.389 230.724 227.987 231.191 226.866 230.58Z" fill="#F7C4D2"/>
    <path d="M241.677 226.005C241.626 226.309 241.516 226.603 241.351 226.874L238.138 232.206C237.458 233.338 236.029 233.687 234.958 232.984C233.886 232.282 233.569 230.785 234.248 229.653L237.45 224.32C238.131 223.188 239.57 222.84 240.642 223.543C241.445 224.073 241.836 225.068 241.677 226.005Z" fill="#F7C4D2"/>
    <path d="M243.345 226.495C242.624 225.985 241.631 226.192 241.138 226.954L238.814 230.546C238.322 231.308 238.508 232.348 239.229 232.858C239.95 233.368 240.943 233.161 241.435 232.399L243.758 228.807C244.252 228.045 244.066 227.004 243.345 226.495Z" fill="#F7C4D2"/>
    <path d="M231.25 232.395C230.099 231.847 229.594 230.407 230.126 229.192L233.159 222.287C233.693 221.074 235.07 220.528 236.221 221.076C237.371 221.624 237.877 223.065 237.344 224.279L234.311 231.184C233.779 232.397 232.401 232.942 231.25 232.395Z" fill="#F7C4D2"/>
    <path d="M236.65 225.641L234.234 231.145L234.424 231.228L236.841 225.725L236.65 225.641Z" fill="#CC3663"/>
    <path d="M240.419 227.664L238.711 230.496L238.889 230.603L240.597 227.771L240.419 227.664Z" fill="#CC3663"/>
    <path d="M232.605 222.885L230.188 228.387L230.378 228.47L232.795 222.968L232.605 222.885Z" fill="#CC3663"/>
    <path d="M299.467 219.932C299.481 219.932 299.504 219.94 299.511 219.94C304.525 219.944 308.602 215.866 308.602 210.856C308.606 205.842 304.528 201.765 299.515 201.762L299.519 199.144H297.506L284.831 199.137H283.065L278.977 199.133H274.236V201.754C273.624 201.754 273.03 201.812 272.452 201.927C272.452 201.927 272.452 201.927 272.448 201.931C268.293 202.756 265.145 206.436 265.141 210.837C265.141 213.971 266.737 216.743 269.159 218.38C270.612 219.357 272.355 219.928 274.232 219.932C274.246 219.932 274.261 219.928 274.276 219.928C274.309 220.371 274.372 220.814 274.449 221.241C274.53 221.676 274.637 222.1 274.755 222.516C274.817 222.726 274.883 222.929 274.957 223.132C275.463 224.554 276.218 225.86 277.158 226.992L277.468 227.353C277.789 227.707 278.124 228.043 278.485 228.352C278.636 228.489 278.798 228.629 278.961 228.754V228.761H278.965C280.163 229.727 281.545 230.475 283.053 230.951C283.621 231.128 284.211 231.272 284.819 231.371C284.827 231.371 284.834 231.375 284.842 231.375V234.622L284.846 235.983H276.485C276.337 235.979 276.201 235.99 276.068 236.016C274.884 236.989 274.063 238.412 273.886 240.016V240.101L299.839 240.116L299.842 239.194C299.518 237.956 298.814 236.868 297.866 236.064C297.667 236.016 297.457 235.987 297.243 235.987H288.882L288.879 234.627L288.886 231.38C294.582 230.465 298.998 225.761 299.467 219.932ZM299.515 204.703C302.907 204.703 305.668 207.461 305.66 210.853C305.66 214.237 302.903 216.998 299.511 216.998L299.515 204.703ZM274.232 216.987C274.232 216.987 274.232 216.987 274.225 216.987C270.841 216.987 268.091 214.226 268.091 210.842C268.091 207.451 270.844 204.697 274.228 204.693H274.236L274.232 216.987Z" fill="#EAC457"/>
    <path opacity="0.1" d="M299.511 201.766L299.515 199.148H297.502C297.502 199.148 302.383 234.455 277.156 226.997L277.466 227.358C277.787 227.712 278.122 228.048 278.483 228.358C278.634 228.494 278.796 228.634 278.959 228.759V228.766H278.963C280.161 229.732 281.543 230.48 283.051 230.956C283.619 231.133 284.209 231.277 284.817 231.376C284.825 231.376 284.832 231.38 284.84 231.38V234.628L284.844 235.988L292.483 238.96L295.845 235.992H288.881L288.875 234.632L288.883 231.384C294.578 230.47 298.995 225.766 299.463 219.937C299.478 219.937 299.5 219.944 299.507 219.944C304.521 219.948 308.598 215.87 308.598 210.86C308.602 205.847 304.525 201.769 299.511 201.766ZM299.507 217.002L299.511 204.707C302.903 204.707 305.665 207.465 305.657 210.856C305.657 214.241 302.899 217.002 299.507 217.002Z" fill="#CA324C"/>
    <path d="M273.84 240.73L273.841 241.977L273.836 246.635L300.033 246.644L300.038 242.063L300.037 240.745C300.034 240.205 299.964 239.686 299.839 239.196C299.517 237.958 298.813 236.872 297.863 236.069C296.797 235.169 295.424 234.631 293.928 234.631L288.877 234.63L284.84 234.627L279.954 234.621C278.472 234.621 277.121 235.147 276.065 236.018C274.881 236.992 274.061 238.414 273.883 240.017C273.857 240.256 273.836 240.49 273.84 240.73Z" fill="#1C8A44"/>
    <path d="M273.849 241.969L273.844 246.626L300.041 246.635L300.056 242.053L273.849 241.969Z" fill="#1C8A44"/>
    <path d="M277.124 208.518C277.558 204.953 279.177 202.218 280.739 202.408C282.301 202.598 283.216 205.642 282.781 209.206C282.347 212.771 280.728 215.506 279.166 215.316C277.604 215.126 276.689 212.082 277.124 208.518Z" fill="url(#paint0_linear_5187_26477)"/>
    <path opacity="0.2" d="M269.166 218.372H269.159C266.737 216.735 265.141 213.963 265.141 210.829C265.145 206.427 268.292 202.747 272.448 201.922C272.197 202.051 261.472 207.81 269.166 218.372Z" fill="white"/>
    <path d="M309.049 326.377H254.893C252.889 326.377 251.266 324.753 251.266 322.75V311.479C251.266 309.475 252.889 307.852 254.893 307.852H309.049V326.377Z" fill="white"/>
    <path opacity="0.4" d="M309.057 313.629H252.172V314.65H309.057V313.629Z" fill="#A1D2E4"/>
    <path opacity="0.4" d="M309.057 316.613H252.172V317.634H309.057V316.613Z" fill="#A1D2E4"/>
    <path opacity="0.4" d="M309.057 322.602H252.172V323.623H309.057V322.602Z" fill="#A1D2E4"/>
    <path opacity="0.4" d="M309.057 310.633H252.172V311.654H309.057V310.633Z" fill="#A1D2E4"/>
    <path opacity="0.4" d="M309.057 319.609H252.172V320.63H309.057V319.609Z" fill="#A1D2E4"/>
    <path d="M309.056 327.271H255.614C252.725 327.271 250.375 324.92 250.375 322.031V312.188C250.375 309.3 252.725 306.949 255.614 306.949H309.056V308.744H255.614C253.715 308.744 252.17 310.289 252.17 312.188V322.031C252.17 323.93 253.715 325.476 255.614 325.476H309.056V327.271Z" fill="#5EBADB"/>
    <path d="M307.705 285.748H253.549C251.546 285.748 249.922 284.125 249.922 282.121V270.85C249.922 268.846 251.546 267.223 253.549 267.223H307.705V285.748Z" fill="white"/>
    <path opacity="0.4" d="M307.714 272.992H250.828V274.013H307.714V272.992Z" fill="#A1D2E4"/>
    <path opacity="0.4" d="M307.714 275.984H250.828V277.005H307.714V275.984Z" fill="#A1D2E4"/>
    <path opacity="0.4" d="M307.714 281.969H250.828V282.99H307.714V281.969Z" fill="#A1D2E4"/>
    <path opacity="0.4" d="M307.714 270H250.828V271.021H307.714V270Z" fill="#A1D2E4"/>
    <path opacity="0.4" d="M307.714 278.973H250.828V279.994H307.714V278.973Z" fill="#A1D2E4"/>
    <path d="M307.712 286.642H254.27C251.381 286.642 249.031 284.292 249.031 281.402V271.559C249.031 268.671 251.382 266.32 254.27 266.32H307.712V268.116H254.27C252.371 268.116 250.826 269.66 250.826 271.559V281.402C250.826 283.301 252.371 284.847 254.27 284.847H307.712V286.642Z" fill="#5EBADB"/>
    <path d="M257.531 306.053H311.687C313.691 306.053 315.315 304.429 315.315 302.426V291.155C315.315 289.151 313.691 287.527 311.687 287.527H257.531V306.053Z" fill="white"/>
    <path opacity="0.4" d="M257.529 294.32H314.414V293.299H257.529V294.32Z" fill="#A1D2E4"/>
    <path opacity="0.4" d="M257.529 297.312H314.414V296.291H257.529V297.312Z" fill="#A1D2E4"/>
    <path opacity="0.4" d="M257.529 303.297H314.414V302.276H257.529V303.297Z" fill="#A1D2E4"/>
    <path opacity="0.4" d="M257.529 291.328H314.414V290.307H257.529V291.328Z" fill="#A1D2E4"/>
    <path opacity="0.4" d="M257.529 300.301H314.414V299.28H257.529V300.301Z" fill="#A1D2E4"/>
    <path d="M257.531 306.947H310.973C313.862 306.947 316.212 304.596 316.212 301.707V291.864C316.212 288.975 313.862 286.625 310.973 286.625H257.531V288.42H310.973C312.872 288.42 314.417 289.965 314.417 291.864V301.707C314.417 303.606 312.872 305.152 310.973 305.152H257.531V306.947Z" fill="#1B6334"/>
    <path d="M259.547 265.417H313.703C315.707 265.417 317.33 263.793 317.33 261.79V250.518C317.33 248.514 315.707 246.891 313.703 246.891H259.547V265.417Z" fill="white"/>
    <path opacity="0.4" d="M259.552 253.691H316.438V252.67H259.552V253.691Z" fill="#A1D2E4"/>
    <path opacity="0.4" d="M259.552 256.68H316.438V255.659H259.552V256.68Z" fill="#A1D2E4"/>
    <path opacity="0.4" d="M259.552 262.668H316.438V261.647H259.552V262.668Z" fill="#A1D2E4"/>
    <path opacity="0.4" d="M259.552 250.699H316.438V249.678H259.552V250.699Z" fill="#A1D2E4"/>
    <path opacity="0.4" d="M259.552 259.672H316.438V258.651H259.552V259.672Z" fill="#A1D2E4"/>
    <path d="M259.547 266.317H312.988C315.877 266.317 318.228 263.967 318.228 261.077V251.235C318.228 248.347 315.877 245.996 312.988 245.996H259.547V247.791H312.988C314.887 247.791 316.432 249.336 316.432 251.235V261.078C316.432 262.977 314.887 264.523 312.988 264.523H259.547V266.317Z" fill="#8EBA61"/>
    <path d="M243.006 287.201L241.918 296.35L241.762 297.686L241.065 303.558L237.617 303.153L238.265 297.686L238.421 296.35L239.558 286.789L243.006 287.201Z" fill="#EAC457"/>
    <path d="M239.562 286.792L241.865 282.113L243.009 287.2L239.562 286.792Z" fill="white"/>
    <path d="M235.59 299.695L232.134 299.993L231.936 297.69L231.822 296.354L230.734 283.58L234.189 283.281L235.305 296.354L235.419 297.69L235.59 299.695Z" fill="#EAC457"/>
    <path opacity="0.2" d="M235.417 297.687H231.934L231.82 296.352H235.303L235.417 297.687Z" fill="#393359"/>
    <path opacity="0.2" d="M241.919 296.352L241.763 297.687H238.266L238.422 296.352H241.919Z" fill="#393359"/>
    <path d="M230.734 283.577L232.046 278.531L234.192 283.283L230.734 283.577Z" fill="white"/>
    <path d="M242.916 297.688L242.368 304.661C242.368 304.661 242.361 304.711 242.354 304.796L240.456 328.959H225.022L224.759 325.583L222.562 297.688H242.916Z" fill="#7AB790"/>
    <path opacity="0.1" d="M242.353 304.801L240.454 328.964H225.021L224.758 325.588C239.325 328.117 242.132 306.706 242.353 304.801Z" fill="#393359"/>
    <path d="M327.534 178.874L334.559 177.737L327.534 176.6L326.397 169.574L325.26 176.6L318.234 177.737L325.26 178.874L326.397 185.899L327.534 178.874Z" fill="#F2F2F2"/>
    <path d="M163.112 235.741L170.137 234.604L163.112 233.467L161.975 226.441L160.838 233.467L153.812 234.604L160.838 235.741L161.975 242.766L163.112 235.741Z" fill="#F2F2F2"/>
    <path d="M48.4948 260.682L55.5203 259.545L48.4948 258.407L47.3578 251.383L46.2208 258.407L39.1953 259.545L46.2208 260.682L47.3578 267.707L48.4948 260.682Z" fill="#F2F2F2"/>
    <path d="M78.1042 197.542L85.1288 196.405L78.1042 195.268L76.9672 188.242L75.8294 195.268L68.8047 196.405L75.8294 197.542L76.9672 204.567L78.1042 197.542Z" fill="#F2F2F2"/>
    <path d="M328.503 297.026L335.528 295.889L328.503 294.751L327.366 287.727L326.229 294.751L319.203 295.889L326.229 297.026L327.366 304.051L328.503 297.026Z" fill="#F2F2F2"/>
    <path d="M225.159 148.319L232.184 147.182L225.159 146.045L224.022 139.02L222.885 146.045L215.859 147.182L222.885 148.319L224.022 155.345L225.159 148.319Z" fill="#F2F2F2"/>
    <defs>
        <linearGradient id="paint0_linear_5187_26477" x1="288.341" y1="201.753" x2="274.251" y2="213.695" gradientUnits="userSpaceOnUse">
            <stop stop-color="white"/>
            <stop offset="1" stop-color="white" stop-opacity="0"/>
        </linearGradient>
    </defs>
</svg>
