<svg width="16" height="16" viewBox="0 0 16 16" fill="none" xmlns="http://www.w3.org/2000/svg">
<path opacity="0.3" d="M14.6655 7.99992H11.5122C11.077 7.98884 10.6485 7.89108 10.2516 7.71236C9.85467 7.53365 9.4974 7.27757 9.20066 6.9591C8.90393 6.64064 8.67369 6.26619 8.52342 5.85767C8.37315 5.44915 8.30587 5.01476 8.32552 4.57992V1.33325H5.05218C4.0549 1.34731 3.10376 1.75563 2.40667 2.46896C1.70959 3.18228 1.32327 4.14258 1.33218 5.13992V10.8599C1.32327 11.8573 1.70959 12.8176 2.40667 13.5309C3.10376 14.2442 4.0549 14.6525 5.05218 14.6666H10.9322C11.9312 14.6543 12.8848 14.2469 13.5843 13.5336C14.2839 12.8203 14.6726 11.859 14.6655 10.8599V7.99992Z" fill="#1C8A44"/>
<path d="M14.6644 6.95325H11.5111C11.2081 6.9441 10.91 6.87388 10.6347 6.74681C10.3594 6.61973 10.1126 6.43841 9.9091 6.21371C9.70556 5.989 9.54945 5.72553 9.45014 5.43907C9.35082 5.15261 9.31034 4.84906 9.33111 4.54659V1.33325L14.6644 6.95325ZM6.21777 7.20659L6.13111 7.15325H6.07777C6.02127 7.12736 5.95993 7.11372 5.89777 7.11325H5.84444C5.79799 7.10694 5.75089 7.10694 5.70444 7.11325L5.63777 7.15325H5.57111L3.53111 8.84659C3.47892 8.8881 3.43543 8.93951 3.40315 8.99786C3.37087 9.05622 3.35043 9.12037 3.343 9.18664C3.33557 9.25291 3.34129 9.32 3.35984 9.38406C3.37839 9.44811 3.40941 9.50788 3.45111 9.55992C3.49595 9.62014 3.55429 9.669 3.62144 9.70258C3.6886 9.73616 3.76269 9.75351 3.83777 9.75325C3.9521 9.75241 4.06269 9.71241 4.15111 9.63992L5.37777 8.66659V12.1266C5.37777 12.2592 5.43045 12.3864 5.52422 12.4801C5.61799 12.5739 5.74517 12.6266 5.87777 12.6266C6.01038 12.6266 6.13756 12.5739 6.23133 12.4801C6.3251 12.3864 6.37777 12.2592 6.37777 12.1266V8.69992L7.44444 9.62659C7.49388 9.67047 7.55163 9.70397 7.61427 9.7251C7.67691 9.74623 7.74315 9.75455 7.80907 9.74957C7.87499 9.7446 7.93923 9.72643 7.99799 9.69614C8.05675 9.66585 8.10882 9.62406 8.15111 9.57325C8.23717 9.46969 8.27971 9.33678 8.26976 9.20249C8.25981 9.0682 8.19816 8.943 8.09777 8.85325L6.21777 7.20659Z" fill="#1C8A44"/>
</svg>
